<?xml version="1.0" standalone="no"?>
<!DOCTYPE svg PUBLIC "-//W3C//DTD SVG 20010904//EN"
 "http://www.w3.org/TR/2001/REC-SVG-20010904/DTD/svg10.dtd">
<svg version="1.0" xmlns="http://www.w3.org/2000/svg"
 width="512.000000pt" height="512.000000pt" viewBox="0 0 512.000000 512.000000"
 preserveAspectRatio="xMidYMid meet">

<g transform="translate(0.000000,512.000000) scale(0.100000,-0.100000)"
fill="#000000" stroke="none">
<path d="M2024 5106 c-114 -36 -229 -124 -298 -228 -56 -84 -79 -158 -84 -275
l-4 -103 -277 0 c-293 0 -345 -6 -433 -51 -54 -28 -143 -113 -175 -167 -54
-92 -63 -145 -63 -381 0 -192 2 -220 19 -251 28 -53 88 -80 176 -80 l72 0 7
-92 c3 -50 6 -115 6 -145 l0 -53 -182 0 c-161 0 -186 -2 -223 -20 -110 -53
-111 -212 -1 -264 28 -13 70 -16 229 -16 l196 0 5 -42 c3 -24 42 -666 86
-1427 87 -1500 80 -1428 144 -1474 l31 -22 1312 0 1312 0 28 21 c66 50 56 -49
149 1511 46 785 84 1429 84 1431 0 1 89 2 198 2 225 0 249 6 290 76 40 68 19
145 -52 198 -25 19 -44 21 -223 24 l-196 3 6 97 c4 53 7 118 7 145 l0 47 73 0
c89 0 151 27 182 80 18 32 20 52 20 255 0 204 -2 225 -23 288 -40 114 -117
203 -222 257 -88 45 -129 50 -421 50 l-276 0 -6 88 c-18 247 -151 433 -366
508 -66 24 -67 24 -566 23 -375 0 -510 -4 -541 -13z m1027 -299 c89 -44 138
-123 146 -233 l6 -74 -632 0 -631 0 0 70 c0 39 6 85 14 104 27 66 94 124 166
147 14 4 221 7 460 6 396 -2 438 -4 471 -20z m1002 -618 c74 -38 101 -105 95
-239 l-3 -75 -1577 -3 -1578 -2 0 113 c0 102 2 118 23 148 12 19 38 42 57 51
33 17 125 18 1498 18 1062 0 1469 -3 1485 -11z m-183 -651 c0 -50 -179 -3116
-186 -3175 l-5 -53 -1115 0 c-613 0 -1114 2 -1114 4 0 2 -43 729 -95 1616 -52
887 -95 1619 -95 1626 0 12 213 14 1305 14 l1305 0 0 -32z"/>
<path d="M1800 3253 c-60 -31 -80 -73 -80 -167 0 -45 22 -592 49 -1217 41
-949 52 -1141 65 -1167 31 -61 98 -92 166 -77 43 9 98 59 108 99 6 21 -8 435
-39 1162 -60 1415 -52 1279 -75 1311 -50 67 -129 90 -194 56z"/>
<path d="M2500 3253 c-19 -10 -45 -33 -57 -52 l-23 -34 0 -1222 0 -1222 23
-34 c61 -91 181 -89 251 5 21 27 21 31 21 1251 0 1220 0 1224 -21 1251 -50 68
-129 91 -194 57z"/>
<path d="M3200 3253 c-52 -27 -76 -71 -83 -150 -14 -163 -100 -2351 -93 -2377
11 -43 66 -93 110 -102 85 -15 170 45 180 128 5 41 94 2138 99 2325 2 79 -1
95 -19 119 -50 68 -129 91 -194 57z"/>
</g>

</svg>
