<?xml version="1.0" standalone="no"?>
<!DOCTYPE svg PUBLIC "-//W3C//DTD SVG 20010904//EN"
 "http://www.w3.org/TR/2001/REC-SVG-20010904/DTD/svg10.dtd">
<svg version="1.0" xmlns="http://www.w3.org/2000/svg"
 width="920.000000pt" height="483.000000pt" viewBox="0 0 920.000000 483.000000"
 preserveAspectRatio="xMidYMid meet">

<g transform="translate(0.000000,483.000000) scale(0.100000,-0.100000)"
fill="#000000" stroke="none">
<path d="M4199 4814 c-25 -7 -66 -32 -92 -54 -44 -39 -97 -127 -97 -161 0 -16
-28 -18 -382 -22 -354 -3 -388 -5 -445 -24 -156 -52 -283 -162 -351 -303 -41
-86 -62 -163 -62 -225 l0 -35 1830 0 1830 0 0 38 c0 61 -27 157 -66 234 -66
131 -214 253 -354 291 -84 24 -139 26 -491 27 l-327 0 -10 43 c-22 84 -96 161
-185 191 -66 22 -726 23 -798 0z"/>
<path d="M3042 2103 c3 -1654 4 -1720 22 -1767 31 -80 68 -138 121 -192 63
-63 125 -100 212 -124 66 -19 107 -20 1197 -20 1248 0 1200 -2 1316 63 129 73
224 214 241 360 4 39 8 820 9 1735 l0 1662 -1560 0 -1560 0 2 -1717z m747
1250 c14 -11 36 -35 49 -53 l22 -33 0 -1341 c0 -1257 -1 -1343 -18 -1375 -47
-94 -171 -113 -250 -38 -18 17 -37 47 -42 67 -6 22 -10 518 -10 1351 l0 1316
23 43 c44 83 156 114 226 63z m900 0 c42 -32 69 -80 76 -136 3 -29 5 -632 3
-1342 -3 -1269 -3 -1291 -23 -1324 -74 -126 -255 -104 -294 34 -15 56 -16
2608 0 2669 12 49 48 92 93 112 40 18 111 12 145 -13z m887 6 c26 -12 53 -36
66 -57 l23 -37 0 -1345 c0 -1503 7 -1367 -70 -1425 -67 -52 -172 -31 -222 45
l-23 33 0 1344 c0 1450 -3 1369 52 1420 49 46 109 54 174 22z"/>
</g>
</svg>
