<?xml version="1.0" standalone="no"?>
<!DOCTYPE svg PUBLIC "-//W3C//DTD SVG 20010904//EN"
 "http://www.w3.org/TR/2001/REC-SVG-20010904/DTD/svg10.dtd">
<svg version="1.0" xmlns="http://www.w3.org/2000/svg"
 width="512.000000pt" height="512.000000pt" viewBox="0 0 512.000000 512.000000"
 preserveAspectRatio="xMidYMid meet">

<g transform="translate(0.000000,512.000000) scale(0.100000,-0.100000)"
fill="#000000" stroke="none">
<path d="M725 4676 c-42 -19 -80 -56 -104 -104 l-21 -41 0 -1972 0 -1971 26
-49 c15 -26 45 -61 67 -76 l40 -28 1381 -3 c1542 -3 1431 -8 1500 68 19 21 39
56 45 77 7 25 11 261 11 688 l0 650 441 440 c259 259 449 456 461 480 28 54
28 136 0 190 -28 55 -367 390 -414 410 -48 19 -118 19 -166 0 -22 -10 -93 -72
-179 -158 l-143 -142 0 685 c0 447 -4 698 -11 723 -13 49 -63 105 -114 128
-38 18 -106 19 -1415 18 -1122 0 -1381 -2 -1405 -13z m2605 -536 l0 -210
-1195 0 -1195 0 0 210 0 210 1195 0 1195 0 0 -210z m0 -952 l0 -392 -303 -306
-303 -305 -121 -315 c-67 -173 -125 -327 -128 -341 -9 -36 11 -102 41 -138 32
-38 102 -65 147 -57 19 3 133 45 253 92 211 83 400 154 409 154 3 0 5 -182 5
-405 l0 -405 -1195 0 -1195 0 0 1405 0 1405 1195 0 1195 0 0 -392z m822 -310
l-52 -53 -65 65 -65 64 52 53 53 53 65 -65 65 -65 -53 -52z m-645 -646 l-348
-347 -101 -37 c-56 -21 -103 -36 -105 -34 -2 2 13 45 33 97 l35 94 352 352
352 353 65 -65 65 -65 -348 -348z"/>
<path d="M1280 3088 c-67 -46 -93 -109 -77 -186 10 -53 62 -107 116 -122 27
-7 283 -10 793 -8 l753 3 37 23 c83 52 108 160 56 239 -51 77 -3 73 -871 73
l-774 0 -33 -22z"/>
<path d="M1290 2368 c-119 -61 -127 -209 -16 -292 27 -20 40 -21 508 -24 l480
-3 43 26 c48 28 85 90 85 143 0 66 -50 138 -113 161 -19 7 -187 11 -486 11
-454 0 -457 0 -501 -22z"/>
<path d="M1300 1609 c-108 -43 -139 -204 -53 -281 50 -46 72 -48 463 -48 410
0 412 0 467 63 37 42 51 108 34 159 -13 40 -64 92 -104 107 -37 14 -772 14
-807 0z"/>
</g>
</svg>
